<svg xmlns="http://www.w3.org/2000/svg" width="100" height="100" viewBox="0 0 100 100">
  <title>Currency AUD</title>
  <rect width="100" height="100" fill="#ffffff" stroke="#e5e7eb" stroke-width="2"/>
  <!-- AUD Symbol (A with $) -->
  <path d="M20 65L35 25h8L58 65h-8l-4-12H32l-4 12h-8zm16-18h10l-5-15-5 15z" fill="#14b8a6"/>
  <rect x="62" y="30" width="6" height="35" fill="#14b8a6"/>
  <path d="M58 35c0-3 2-5 5-5h8c5 0 9 4 9 9s-4 9-9 9h-8c-2 0-3 1-3 3s1 3 3 3h8c5 0 9 4 9 9s-4 9-9 9h-8c-3 0-5-2-5-5" stroke="#14b8a6" stroke-width="4" fill="none" stroke-linecap="round"/>
  <!-- Text Label -->
  <text x="50" y="85" text-anchor="middle" font-family="Arial, sans-serif" font-size="12" font-weight="bold" fill="#374151">AUD</text>
</svg>
